# xmcd
#
# Track frame offsets:
#	150
#	11672
#	23242
#	39055
#	56530
#	65490
#	83097
#	100980
#	115672
#	131460
#	143612
#
# Disc length: 2201 seconds
#
# Revision: 0
# Processed by: cddbd v1.5.2PL0 Copyright (c) Steve Scherf et al.
# Submitted via: dBpowerAMP V4.0
#
DISCID=8208970b
DTITLE=Tim Watson and Black Creek - Up The Creek
DYEAR=1994
DGENRE=Country
TTITLE0=Fox On The Run
TTITLE1=Foggy Mountain Breakdown
TTITLE2=Without Love
TTITLE3=Down Yonder
TTITLE4=Jed Clampett
TTITLE5=Up The Creek
TTITLE6=Tennessee Waltz
TTITLE7=Duelin' Banjos
TTITLE8=Mountain Due
TTITLE9=Arkansas Traveler
TTITLE10=Gospel Medley
EXTD=
EXTT0=
EXTT1=
EXTT2=
EXTT3=
EXTT4=
EXTT5=
EXTT6=
EXTT7=
EXTT8=
EXTT9=
EXTT10=
PLAYORDER=
